<svg xmlns="http://www.w3.org/2000/svg" width="128" height="128" viewBox="0 0 40 40" fill="none">
<g transform="scale(1.66667)">
<path d="M5 11C5 10.4477 5.44772 10 6 10H18C18.5523 10 19 10.4477 19 11V15C19 15.5523 18.5523 16 18 16H6C5.44772 16 5 15.5523 5 15V11Z" stroke="currentColor" stroke-width="0.9" stroke-linejoin="round"/>
<path d="M6.5 10L7.5 6.5C7.7 5.9 8.3 5.5 8.9 5.5H15.1C15.7 5.5 16.3 5.9 16.5 6.5L17.5 10" stroke="currentColor" stroke-width="0.9" stroke-linecap="round" stroke-linejoin="round"/>
<circle cx="7.5" cy="13" r="0.75" fill="currentColor"/>
<circle cx="16.5" cy="13" r="0.75" fill="currentColor"/>
<path d="M7.5 16V17.5" stroke="currentColor" stroke-width="0.9" stroke-linecap="round"/>
<path d="M16.5 16V17.5" stroke="currentColor" stroke-width="0.9" stroke-linecap="round"/>
</g>
</svg>